<svg width="30" height="30" viewBox="0 0 30 30" fill="none" xmlns="http://www.w3.org/2000/svg">
<g id="Icon">
<path id="vector" d="M25.6373 5.86028V24.1657C25.6373 24.5842 25.4711 24.9856 25.1751 25.2816C24.8792 25.5775 24.4778 25.7438 24.0593 25.7438H5.75384C5.33531 25.7438 4.93393 25.5775 4.63798 25.2816C4.34204 24.9856 4.17578 24.5842 4.17578 24.1657V5.86028C4.17578 5.44175 4.34204 5.04037 4.63798 4.74443C4.93393 4.44849 5.33531 4.28223 5.75384 4.28223H24.0593C24.4778 4.28223 24.8792 4.44849 25.1751 4.74443C25.4711 5.04037 25.6373 5.44175 25.6373 5.86028ZM10.488 12.4881H7.33189V22.5877H10.488V12.4881ZM10.772 9.01639C10.7737 8.77765 10.7283 8.54093 10.6385 8.31973C10.5487 8.09854 10.4162 7.8972 10.2485 7.72722C10.0809 7.55723 9.88141 7.42193 9.66149 7.32905C9.44156 7.23616 9.20549 7.1875 8.96675 7.18585H8.90994C8.42445 7.18585 7.95885 7.37871 7.61555 7.722C7.27226 8.06529 7.0794 8.5309 7.0794 9.01639C7.0794 9.50188 7.27226 9.96748 7.61555 10.3108C7.95885 10.6541 8.42445 10.8469 8.90994 10.8469C9.14869 10.8528 9.38626 10.8116 9.60907 10.7256C9.83189 10.6396 10.0356 10.5106 10.2085 10.3459C10.3814 10.1812 10.5202 9.98398 10.6169 9.76561C10.7136 9.54724 10.7663 9.31195 10.772 9.0732V9.01639ZM22.4812 16.4522C22.4812 13.416 20.5497 12.2356 18.6308 12.2356C18.0025 12.2042 17.3769 12.338 16.8165 12.6237C16.256 12.9095 15.7803 13.3372 15.4368 13.8642H15.3484V12.4881H12.3817V22.5877H15.5378V17.216C15.4921 16.6658 15.6654 16.1199 16.02 15.6967C16.3746 15.2736 16.8818 15.0075 17.4314 14.9562H17.5514C18.555 14.9562 19.2999 15.5874 19.2999 17.1781V22.5877H22.456L22.4812 16.4522Z" fill="#5700FF"/>
</g>
</svg>
