<svg width="22" height="21" viewBox="0 0 22 21" fill="none" xmlns="http://www.w3.org/2000/svg">
<path id="Shape" d="M9.22563 1.97511C10.0468 0.574491 12.0716 0.574489 12.8927 1.97511L14.7268 5.10346C15.0265 5.61459 15.5259 5.97743 16.1046 6.10448L19.6466 6.88207C21.2324 7.23021 21.8581 9.15591 20.7798 10.3697L18.3713 13.0807C17.9778 13.5236 17.787 14.1107 17.845 14.7004L18.2 18.3093C18.359 19.9251 16.7209 21.1152 15.2333 20.4648L11.9107 19.0119C11.3678 18.7746 10.7505 18.7746 10.2077 19.0119L6.88506 20.4648C5.39748 21.1152 3.75938 19.9251 3.91832 18.3093L4.27333 14.7004C4.33133 14.1107 4.14057 13.5236 3.74706 13.0807L1.33858 10.3697C0.260263 9.15591 0.885957 7.23021 2.47177 6.88207L6.01377 6.10448C6.59248 5.97743 7.0919 5.61459 7.39156 5.10346L9.22563 1.97511Z" fill="#FFB703"/>
</svg>
