<svg width="109" height="32" viewBox="0 0 109 32" fill="none" xmlns="http://www.w3.org/2000/svg">
<g id="talkit 1" opacity="0.3">
<path id="Vector" d="M11.6341 31.6084C11.0585 31.6084 10.7701 31.3604 10.7701 30.862V30.7055C10.7701 30.3924 11.0334 29.9205 11.5587 29.292C12.1092 28.6383 12.3845 27.9833 12.3845 27.3296V6.68184H10.3943C9.81869 6.68184 9.29333 6.93106 8.81703 7.42829C8.37149 7.91773 8.00411 8.47374 7.72801 9.07649C7.4767 9.65198 7.16555 10.1889 6.78978 10.6862C6.41401 11.1834 6.03824 11.4326 5.66246 11.4326H5.02461C4.32333 11.4326 4.00979 11.0522 4.08518 10.2937L4.83672 4.95417C4.91092 4.14391 5.33695 3.73818 6.11363 3.73818H25.4168C26.1671 3.73818 26.5932 4.14391 26.6925 4.95417L27.4823 10.3322C27.5314 10.6729 27.4692 10.9474 27.2933 11.1569C27.1185 11.3399 26.8684 11.4314 26.5429 11.4314H25.9039C25.5293 11.4314 25.1535 11.1834 24.7777 10.685C24.402 10.1865 24.0765 9.65198 23.8012 9.07649C23.526 8.47452 23.1502 7.92552 22.6751 7.42708C22.1988 6.93106 21.6734 6.68184 21.0978 6.68184H19.1448V27.3296C19.1448 27.9833 19.408 28.6383 19.9334 29.292C20.4839 29.9205 20.7591 30.3912 20.7591 30.7055V30.862C20.7591 31.3604 20.46 31.6084 19.858 31.6084H11.6341ZM43.4287 27.3296C43.5041 27.958 43.6417 28.4685 43.8416 28.861C44.0677 29.227 44.2796 29.463 44.4806 29.5677C44.7056 29.6725 44.9054 29.8025 45.0814 29.9602C45.2561 30.1167 45.3447 30.313 45.3447 30.5489C45.3447 31.4122 43.9301 31.8444 41.1011 31.8444C39.9486 31.8444 39.0846 31.6999 38.509 31.411C37.9585 31.1244 37.6078 30.6404 37.4582 29.9602C36.5056 31.3207 34.9164 32.0009 32.6881 32.0009C30.5854 32.0009 28.8705 31.4904 27.5422 30.4695C26.2413 29.4497 25.5915 27.9713 25.5915 26.0341C25.5915 24.1499 26.2413 22.6847 27.5422 21.6373C28.8454 20.5658 30.4478 20.0288 32.3506 20.0288C33.8274 20.0288 35.0911 20.3551 36.1442 21.01V20.8921C35.8929 18.3012 35.6057 16.5482 35.279 15.6308C34.9798 14.7158 34.3779 14.2583 33.4767 14.2583C32.9011 14.2583 32.438 14.5328 32.0873 15.0818C31.7334 15.6392 31.4674 16.2484 31.2987 16.8877C31.1434 17.5525 30.8347 18.1712 30.3976 18.6936C29.9464 19.2438 29.3456 19.5184 28.5953 19.5184C27.8186 19.5184 27.1808 19.2824 26.6805 18.8116C26.2042 18.3409 25.9661 17.7257 25.9661 16.9672C25.9661 15.449 26.6925 14.3101 28.1441 13.5516C29.5958 12.7666 31.3741 12.3741 33.4767 12.3741C35.9803 12.3741 38.0458 13.0929 39.6734 14.5328C41.3249 15.9462 42.3026 17.8689 42.603 20.3033L43.4287 27.3296ZM34.7536 29.9987C35.3293 29.9987 35.7924 29.711 36.143 29.1355C36.5188 28.56 36.7055 27.9051 36.7055 27.1731L36.5559 25.3671C36.3058 23.1952 35.5303 22.1093 34.2283 22.1093C33.6527 22.1093 33.1895 22.3573 32.8389 22.8557C32.4882 23.3252 32.3123 23.9669 32.3123 24.7784C32.3123 26.2436 32.5253 27.4873 32.9514 28.507C33.4013 29.5015 34.0033 29.9999 34.7536 29.9999V29.9987ZM46.9889 31.6084C46.4121 31.6084 46.1249 31.3604 46.1249 30.862V30.7055C46.1249 30.3924 46.3619 29.9205 46.8382 29.292C47.3384 28.6383 47.5885 27.9833 47.5885 27.3296V9.39072C47.5885 8.71049 47.3384 8.05554 46.8382 7.42829C46.3619 6.77334 46.1249 6.31584 46.1249 6.05338V5.89686C46.1249 5.60791 46.4002 5.30693 46.9507 4.9939L52.6207 2.08877C53.1473 1.854 53.5602 1.84076 53.8605 2.05024C54.1861 2.23324 54.3488 2.52099 54.3488 2.91347V27.3296C54.3488 27.9833 54.6241 28.6383 55.1745 29.292C55.725 29.9205 56.0003 30.3912 56.0003 30.7055V30.862C56.0003 31.3604 55.7011 31.6084 55.1003 31.6084H46.9889ZM77.5844 28.3108C77.7101 28.4938 78.0858 28.8345 78.7117 29.3317C79.3627 29.829 79.6882 30.2865 79.6882 30.7055V30.862C79.6882 31.3604 79.401 31.6084 78.8242 31.6084H70.9378C70.3622 31.6084 70.0738 31.3472 70.0738 30.8234V30.7055C70.0738 30.3924 70.2616 30.012 70.6374 29.5665C71.0132 29.097 71.0886 28.6768 70.8624 28.3108L67.5582 23.1687L65.6794 24.9747V27.3296C65.6794 27.9833 65.9546 28.6383 66.5063 29.292C67.082 29.9205 67.3704 30.3912 67.3704 30.7055V30.862C67.3704 31.3604 67.07 31.6084 66.4692 31.6084H58.3566C57.7559 31.6084 57.4555 31.3604 57.4555 30.862V30.7055C57.4555 30.3924 57.7068 29.9205 58.207 29.292C58.7073 28.6383 58.9586 27.9833 58.9586 27.3296V9.39072C58.9586 8.71049 58.657 8.05554 58.0563 7.42829C57.4555 6.77334 57.1551 6.31584 57.1551 6.05338V5.89686C57.1551 5.60791 57.4304 5.30693 57.9809 4.9939L63.992 2.08877C64.5174 1.87928 64.9302 1.86724 65.2306 2.05024C65.531 2.23324 65.6818 2.52099 65.6818 2.91347V21.559L70.7511 17.0057C71.0515 16.7962 71.164 16.535 71.0898 16.2207C71.044 15.9158 70.9138 15.63 70.714 15.396C70.5184 15.105 70.3181 14.8173 70.1133 14.5328C69.9122 14.2198 69.8129 13.9429 69.8129 13.7081V13.5516C69.8129 13.0279 70.1001 12.7666 70.6757 12.7666H76.6103C77.1847 12.7666 77.4731 13.0146 77.4731 13.513V13.6696C77.4731 13.9826 77.2984 14.3101 76.9477 14.6508C76.5971 14.9638 76.0969 15.3443 75.4459 15.7885C74.9112 16.1355 74.4086 16.5299 73.944 16.9672L71.5397 19.2824L77.5844 28.3108ZM85.1573 10.4502C83.8804 10.4502 82.8416 10.0842 82.0398 9.35099C81.238 8.59251 80.8383 7.64981 80.8383 6.52532C80.8383 5.39963 81.2392 4.47018 82.0398 3.73818C82.8416 2.97969 83.8804 2.59924 85.1573 2.59924C86.409 2.59924 87.4358 2.97849 88.2365 3.73818C89.0383 4.47018 89.438 5.39963 89.438 6.52532C89.438 7.64981 89.0383 8.59251 88.2365 9.35099C87.4346 10.0842 86.409 10.4502 85.1573 10.4502ZM81.1387 31.6084C80.5379 31.6084 80.2375 31.3604 80.2375 30.862V30.7055C80.2375 30.3924 80.4889 29.9072 80.9891 29.2535C81.4893 28.5997 81.7394 27.9448 81.7394 27.291V19.8326C81.7394 19.1523 81.4893 18.4974 80.9891 17.8701C80.4877 17.2152 80.2375 16.7697 80.2375 16.5338V16.3772C80.2375 16.0642 80.5248 15.7632 81.1016 15.4743L86.7717 12.5704C87.2982 12.3344 87.7111 12.3079 88.0115 12.4921C88.3118 12.6751 88.4626 12.9761 88.4626 13.3951V27.291C88.4626 27.9448 88.7379 28.5985 89.2884 29.2535C89.864 29.9072 90.1524 30.3912 90.1524 30.7055V30.862C90.1524 31.3592 89.8389 31.6084 89.213 31.6084H81.1387ZM99.5611 32.0009C97.6583 32.0009 96.1576 31.3724 95.0554 30.1167C93.9783 28.861 93.4398 27.0683 93.4398 24.7387V15.4358H92.0133C91.7787 15.4412 91.5507 15.3569 91.3755 15.1998C91.2233 15.0118 91.1431 14.7752 91.1493 14.5328V13.6696C91.1493 13.0676 91.4377 12.7666 92.0133 12.7666H92.7266C93.879 12.7666 94.8687 12.4126 95.6944 11.7071C96.5202 10.9727 97.0587 10.0059 97.3088 8.80199C97.4345 8.12176 97.7719 7.78104 98.3224 7.78104H99.1865C99.8626 7.78104 100.2 8.12176 100.2 8.80199V12.7666H104.069C104.319 12.7666 104.519 12.8581 104.67 13.0411C104.845 13.1976 104.933 13.4071 104.933 13.6696V14.5328C104.936 14.656 104.913 14.7784 104.868 14.893C104.823 15.0075 104.756 15.1118 104.67 15.1998C104.592 15.2791 104.498 15.3411 104.394 15.3817C104.291 15.4224 104.18 15.4408 104.069 15.4358H100.2V24.8567C100.2 25.5104 100.363 26.0341 100.688 26.4266C101.014 26.7938 101.415 26.9768 101.89 26.9768C102.967 26.9768 103.793 26.4928 104.369 25.5237C104.544 25.2889 104.744 25.1577 104.97 25.1312C105.195 25.0794 105.383 25.1191 105.533 25.2492C105.709 25.3804 105.796 25.5622 105.796 25.7994C105.796 27.4476 105.234 28.8995 104.106 30.1565C103.005 31.3857 101.49 32.0009 99.5611 32.0009Z" fill="#202430"/>
</g>
</svg>
