<svg width="29" height="30" viewBox="0 0 29 30" fill="none" xmlns="http://www.w3.org/2000/svg">
<g id="Icon">
<path id="vector" d="M24.1138 10.148C24.1284 10.3582 24.1284 10.5684 24.1284 10.7806C24.1284 17.2451 19.2071 24.7007 10.2082 24.7007V24.6969C7.5499 24.7007 4.94683 23.9393 2.70898 22.5036C3.09552 22.5501 3.484 22.5733 3.87344 22.5743C6.07641 22.5762 8.21641 21.8371 9.94953 20.476C7.85603 20.4362 6.02022 19.0712 5.3789 17.0785C6.11226 17.2199 6.86789 17.1909 7.58769 16.9942C5.30527 16.5331 3.66322 14.5277 3.66322 12.1988C3.66322 12.1775 3.66322 12.1572 3.66322 12.1368C4.34329 12.5156 5.10474 12.7258 5.88363 12.7491C3.73394 11.3124 3.0713 8.45262 4.36945 6.21671C6.85336 9.27316 10.5182 11.1313 14.4524 11.3279C14.0581 9.6287 14.5967 7.84811 15.8677 6.65362C17.8382 4.80134 20.9373 4.89628 22.7895 6.86578C23.8852 6.64974 24.9354 6.24771 25.8964 5.67807C25.5312 6.81056 24.7668 7.77254 23.7457 8.38383C24.7155 8.26952 25.6629 8.00989 26.5551 7.61366C25.8983 8.59793 25.071 9.45529 24.1138 10.148Z" fill="#5700FF"/>
</g>
</svg>
